<svg width="1157" height="333" viewBox="0 0 1157 333" fill="none" xmlns="http://www.w3.org/2000/svg">
<path d="M461.091 128.7L433.667 217.494H415.018L398.32 162.462C397.995 161.609 397.69 160.675 397.406 159.659C397.122 158.603 396.837 157.506 396.553 156.368C396.268 157.506 395.984 158.603 395.7 159.659C395.415 160.675 395.111 161.609 394.786 162.462L377.844 217.494H359.195L331.771 128.7H349.079C350.866 128.7 352.349 129.107 353.527 129.919C354.746 130.732 355.539 131.808 355.904 133.149L368.093 179.465C368.458 180.928 368.824 182.533 369.19 184.28C369.555 185.986 369.921 187.774 370.287 189.643C371.018 185.824 371.912 182.431 372.968 179.465L387.351 133.149C387.716 132.011 388.488 130.996 389.666 130.102C390.885 129.167 392.348 128.7 394.054 128.7H400.148C401.936 128.7 403.378 129.127 404.475 129.98C405.572 130.793 406.405 131.849 406.974 133.149L421.235 179.465C422.291 182.309 423.185 185.539 423.916 189.155C424.241 187.327 424.566 185.621 424.891 184.036C425.257 182.411 425.622 180.887 425.988 179.465L438.177 133.149C438.502 131.971 439.274 130.935 440.492 130.041C441.711 129.147 443.174 128.7 444.88 128.7H461.091ZM499.119 178.307C499.119 176.804 498.916 175.342 498.51 173.92C498.144 172.498 497.514 171.238 496.621 170.141C495.767 169.004 494.63 168.089 493.208 167.399C491.786 166.708 490.059 166.363 488.028 166.363C484.452 166.363 481.649 167.399 479.618 169.471C477.586 171.502 476.245 174.448 475.595 178.307H499.119ZM475.352 189.277C475.961 194.559 477.566 198.398 480.166 200.795C482.766 203.152 486.118 204.33 490.222 204.33C492.415 204.33 494.305 204.066 495.889 203.538C497.474 203.01 498.875 202.42 500.094 201.77C501.354 201.12 502.491 200.531 503.507 200.003C504.563 199.475 505.66 199.211 506.798 199.211C508.301 199.211 509.439 199.759 510.211 200.856L515.696 207.621C513.745 209.855 511.633 211.684 509.358 213.106C507.123 214.487 504.807 215.584 502.41 216.397C500.054 217.169 497.677 217.697 495.28 217.981C492.923 218.306 490.668 218.469 488.515 218.469C484.087 218.469 479.922 217.758 476.022 216.336C472.162 214.873 468.77 212.72 465.845 209.876C462.96 207.032 460.664 203.497 458.958 199.272C457.292 195.046 456.459 190.13 456.459 184.524C456.459 180.298 457.17 176.296 458.592 172.518C460.055 168.74 462.127 165.428 464.809 162.584C467.531 159.74 470.801 157.485 474.62 155.82C478.48 154.154 482.827 153.321 487.662 153.321C491.847 153.321 495.666 153.971 499.119 155.271C502.613 156.571 505.599 158.461 508.078 160.939C510.597 163.417 512.547 166.464 513.928 170.08C515.35 173.656 516.061 177.718 516.061 182.269C516.061 183.691 516 184.849 515.878 185.742C515.756 186.636 515.533 187.347 515.208 187.875C514.883 188.404 514.436 188.769 513.867 188.972C513.339 189.176 512.648 189.277 511.795 189.277H475.352ZM564.823 178.307C564.823 176.804 564.62 175.342 564.213 173.92C563.848 172.498 563.218 171.238 562.324 170.141C561.471 169.004 560.333 168.089 558.911 167.399C557.489 166.708 555.763 166.363 553.731 166.363C550.156 166.363 547.353 167.399 545.321 169.471C543.29 171.502 541.949 174.448 541.299 178.307H564.823ZM541.055 189.277C541.665 194.559 543.269 198.398 545.87 200.795C548.47 203.152 551.822 204.33 555.925 204.33C558.119 204.33 560.008 204.066 561.593 203.538C563.177 203.01 564.579 202.42 565.798 201.77C567.057 201.12 568.195 200.531 569.211 200.003C570.267 199.475 571.364 199.211 572.502 199.211C574.005 199.211 575.142 199.759 575.914 200.856L581.399 207.621C579.449 209.855 577.336 211.684 575.061 213.106C572.827 214.487 570.511 215.584 568.114 216.397C565.757 217.169 563.381 217.697 560.983 217.981C558.627 218.306 556.372 218.469 554.219 218.469C549.79 218.469 545.626 217.758 541.726 216.336C537.866 214.873 534.473 212.72 531.548 209.876C528.664 207.032 526.368 203.497 524.662 199.272C522.996 195.046 522.163 190.13 522.163 184.524C522.163 180.298 522.874 176.296 524.296 172.518C525.759 168.74 527.831 165.428 530.512 162.584C533.234 159.74 536.505 157.485 540.324 155.82C544.184 154.154 548.531 153.321 553.366 153.321C557.55 153.321 561.369 153.971 564.823 155.271C568.317 156.571 571.303 158.461 573.781 160.939C576.3 163.417 578.25 166.464 579.632 170.08C581.054 173.656 581.765 177.718 581.765 182.269C581.765 183.691 581.704 184.849 581.582 185.742C581.46 186.636 581.237 187.347 580.912 187.875C580.587 188.404 580.14 188.769 579.571 188.972C579.043 189.176 578.352 189.277 577.499 189.277H541.055ZM610.111 126.263V177.393H612.914C614.092 177.393 614.986 177.231 615.596 176.906C616.205 176.54 616.814 175.951 617.424 175.138L629.369 157.343C630.1 156.328 630.933 155.576 631.867 155.088C632.802 154.56 634 154.296 635.463 154.296H652.771L636.438 176.784C634.894 178.815 633.066 180.481 630.953 181.781C631.888 182.472 632.741 183.284 633.513 184.219C634.285 185.113 635.016 186.128 635.707 187.266L653.502 217.494H636.438C635.016 217.494 633.797 217.27 632.781 216.823C631.766 216.336 630.912 215.503 630.222 214.325L618.277 191.959C617.708 190.943 617.119 190.293 616.51 190.008C615.9 189.683 614.986 189.521 613.767 189.521H610.111V217.494H591.219V126.263H610.111ZM695.754 178.307C695.754 176.804 695.551 175.342 695.145 173.92C694.779 172.498 694.149 171.238 693.255 170.141C692.402 169.004 691.265 168.089 689.843 167.399C688.421 166.708 686.694 166.363 684.663 166.363C681.087 166.363 678.284 167.399 676.252 169.471C674.221 171.502 672.88 174.448 672.23 178.307H695.754ZM671.986 189.277C672.596 194.559 674.201 198.398 676.801 200.795C679.401 203.152 682.753 204.33 686.856 204.33C689.05 204.33 690.94 204.066 692.524 203.538C694.109 203.01 695.51 202.42 696.729 201.77C697.989 201.12 699.126 200.531 700.142 200.003C701.198 199.475 702.295 199.211 703.433 199.211C704.936 199.211 706.074 199.759 706.846 200.856L712.33 207.621C710.38 209.855 708.268 211.684 705.992 213.106C703.758 214.487 701.442 215.584 699.045 216.397C696.689 217.169 694.312 217.697 691.915 217.981C689.558 218.306 687.303 218.469 685.15 218.469C680.722 218.469 676.557 217.758 672.657 216.336C668.797 214.873 665.405 212.72 662.479 209.876C659.595 207.032 657.299 203.497 655.593 199.272C653.927 195.046 653.094 190.13 653.094 184.524C653.094 180.298 653.805 176.296 655.227 172.518C656.69 168.74 658.762 165.428 661.443 162.584C664.166 159.74 667.436 157.485 671.255 155.82C675.115 154.154 679.462 153.321 684.297 153.321C688.482 153.321 692.301 153.971 695.754 155.271C699.248 156.571 702.234 158.461 704.713 160.939C707.232 163.417 709.182 166.464 710.563 170.08C711.985 173.656 712.696 177.718 712.696 182.269C712.696 183.691 712.635 184.849 712.513 185.742C712.391 186.636 712.168 187.347 711.843 187.875C711.518 188.404 711.071 188.769 710.502 188.972C709.974 189.176 709.283 189.277 708.43 189.277H671.986ZM739.579 161.122C740.798 159.984 742.058 158.928 743.358 157.953C744.658 156.978 746.039 156.165 747.502 155.515C749.005 154.824 750.61 154.296 752.316 153.93C754.063 153.524 755.953 153.321 757.984 153.321C761.437 153.321 764.485 153.93 767.125 155.149C769.807 156.328 772.062 157.993 773.89 160.147C775.718 162.259 777.1 164.799 778.034 167.764C778.969 170.69 779.436 173.879 779.436 177.332V217.494H760.544V177.332C760.544 174.245 759.833 171.848 758.411 170.141C756.989 168.394 754.896 167.521 752.134 167.521C750.061 167.521 748.111 167.968 746.283 168.861C744.495 169.715 742.748 170.893 741.042 172.396V217.494H722.15V154.296H733.851C736.207 154.296 737.751 155.352 738.482 157.465L739.579 161.122ZM829.995 171.238C828.573 169.654 827.029 168.557 825.364 167.947C823.698 167.297 821.951 166.972 820.123 166.972C818.376 166.972 816.771 167.318 815.308 168.008C813.845 168.699 812.566 169.816 811.469 171.36C810.412 172.863 809.579 174.834 808.97 177.271C808.361 179.709 808.056 182.655 808.056 186.108C808.056 189.44 808.3 192.243 808.787 194.518C809.275 196.793 809.945 198.642 810.798 200.064C811.692 201.445 812.748 202.441 813.967 203.05C815.186 203.66 816.547 203.964 818.05 203.964C819.432 203.964 820.671 203.842 821.768 203.599C822.906 203.314 823.942 202.928 824.876 202.441C825.81 201.953 826.684 201.344 827.497 200.612C828.35 199.841 829.183 198.967 829.995 197.992V171.238ZM848.887 126.263V217.494H837.186C834.83 217.494 833.286 216.437 832.555 214.325L831.092 209.51C829.833 210.851 828.512 212.07 827.131 213.167C825.75 214.264 824.246 215.218 822.621 216.031C821.037 216.803 819.31 217.392 817.441 217.798C815.613 218.245 813.622 218.469 811.469 218.469C808.178 218.469 805.131 217.737 802.327 216.275C799.524 214.812 797.107 212.699 795.075 209.937C793.044 207.174 791.439 203.802 790.261 199.82C789.123 195.798 788.554 191.227 788.554 186.108C788.554 181.395 789.204 177.028 790.504 173.005C791.805 168.943 793.633 165.449 795.989 162.523C798.386 159.557 801.251 157.242 804.582 155.576C807.914 153.91 811.591 153.077 815.613 153.077C818.904 153.077 821.666 153.544 823.901 154.479C826.136 155.413 828.167 156.673 829.995 158.257V126.263H848.887ZM923.379 172.274C928.742 172.274 932.602 170.994 934.958 168.435C937.315 165.875 938.493 162.3 938.493 157.709C938.493 155.677 938.188 153.829 937.579 152.163C936.969 150.497 936.035 149.075 934.775 147.897C933.557 146.678 931.992 145.744 930.083 145.094C928.214 144.444 925.979 144.119 923.379 144.119H912.653V172.274H923.379ZM923.379 128.7C929.636 128.7 934.999 129.452 939.468 130.955C943.978 132.418 947.675 134.449 950.56 137.049C953.485 139.65 955.638 142.717 957.019 146.252C958.401 149.786 959.092 153.605 959.092 157.709C959.092 162.137 958.381 166.2 956.959 169.897C955.537 173.595 953.363 176.764 950.438 179.404C947.512 182.045 943.795 184.117 939.285 185.621C934.816 187.083 929.514 187.815 923.379 187.815H912.653V217.494H892.055V128.7H923.379ZM1010.28 183.549L1002.05 159.232C1001.44 157.689 1000.79 155.881 1000.1 153.809C999.41 151.696 998.72 149.421 998.029 146.983C997.42 149.461 996.77 151.757 996.079 153.87C995.388 155.982 994.738 157.81 994.129 159.354L985.962 183.549H1010.28ZM1043 217.494H1027.04C1025.25 217.494 1023.81 217.087 1022.71 216.275C1021.61 215.421 1020.78 214.345 1020.21 213.045L1014.97 197.565H981.209L975.968 213.045C975.521 214.182 974.708 215.218 973.53 216.153C972.393 217.047 970.971 217.494 969.264 217.494H953.175L987.547 128.7H1008.63L1043 217.494Z" fill="white"/>
<path fill-rule="evenodd" clip-rule="evenodd" d="M73.5359 238.596L108.285 203.847L122.833 218.395L87.61 253.618C133.732 295.021 204.723 293.546 249.073 249.196C294.949 203.32 294.949 128.941 249.073 83.0652C203.198 37.1895 128.819 37.1896 82.943 83.0652C40.4529 125.555 37.3172 192.497 73.5359 238.596ZM109.602 170.798L76.1475 163.549L80.0984 156.927C82.8947 152.254 87.3676 148.795 92.5535 147.304L129.432 136.701C123.821 145.891 118.22 155.704 111.382 167.681L111.382 167.681C110.798 168.704 110.205 169.743 109.602 170.798ZM179.167 233.917L189.9 196.617C182.143 201.411 174.589 205.881 165.333 211.359L165.332 211.359L165.326 211.363L165.305 211.375C162.308 213.149 159.132 215.029 155.712 217.059L162.926 250.328L169.548 246.377C174.212 243.581 177.671 239.108 179.167 233.917ZM159.57 198.29L159.57 198.29C155.767 200.537 151.878 202.834 147.916 205.197L121.445 178.725C122.626 176.66 123.795 174.612 124.953 172.583L124.962 172.567L124.962 172.567C140.028 146.165 153.212 123.062 168.78 107.494C187.37 88.904 209.941 81.5042 240.021 86.4541C245.252 116.957 238.089 138.99 219.158 157.52C204.818 171.556 183.949 183.886 159.57 198.29ZM126.801 214.203L112.268 199.669L119.537 186.858L139.618 206.939L126.801 214.203ZM214.338 137.049C207.397 143.991 196.143 143.991 189.201 137.049C182.26 130.108 182.26 118.854 189.201 111.912C196.143 104.971 207.397 104.971 214.338 111.912C221.28 118.854 221.28 130.108 214.338 137.049ZM158.864 167.387C163.411 171.935 170.785 171.935 175.333 167.387C179.881 162.839 179.881 155.466 175.333 150.918C170.785 146.37 163.411 146.37 158.864 150.918C154.316 155.466 154.316 162.839 158.864 167.387Z" fill="white"/>
</svg>
